PathFileType	4	(X/Y/Z)	C:\Users\Basilio\Documents\Thesis Gigler\squatting_fais\c3dfiles\038\SLS_front_pre3\markers_experimental.trc
DataRate	CameraRate	NumFrames	NumMarkers	Units	OrigDataRate	OrigDataStartFrame	OrigNumFrames
200.000000	200.000000	4	61	mm	200.000000	855	1368
Frame#	Time	FHD			LBHD			RBHD			C7			T10			CLAV			LSHO			LUUPA			LMUPA			LDUPA			LLEP			LMEP			LUL			LRFIN			RSHO			RUPA1			RMUPA			RDUPA			RLEP			RMEP			RRAD			RUL			RUFIN			LASI			RASI			USACR			LSACR			RSACR			LTHI1			LTHI2			LTHI3			LTHI4			LLFC			LMFC			LTIB1			LTIB2			LTIB3			LTIB4			LLMAL			LMMAL			LHEE			LMT1			LMT2			LMT5			RTHI			RTHI2			RTHI3			RTHI4			RLFC			RMFC			RTIB1			RTIB2			RTIB3			RTIB4			RLMAL			RMMAL			RHEE			RMT1			RMT2			RMT5			LRAD			
		X1	Y1	Z1	X2	Y2	Z2	X3	Y3	Z3	X4	Y4	Z4	X5	Y5	Z5	X6	Y6	Z6	X7	Y7	Z7	X8	Y8	Z8	X9	Y9	Z9	X10	Y10	Z10	X11	Y11	Z11	X12	Y12	Z12	X13	Y13	Z13	X14	Y14	Z14	X15	Y15	Z15	X16	Y16	Z16	X17	Y17	Z17	X18	Y18	Z18	X19	Y19	Z19	X20	Y20	Z20	X21	Y21	Z21	X22	Y22	Z22	X23	Y23	Z23	X24	Y24	Z24	X25	Y25	Z25	X26	Y26	Z26	X27	Y27	Z27	X28	Y28	Z28	X29	Y29	Z29	X30	Y30	Z30	X31	Y31	Z31	X32	Y32	Z32	X33	Y33	Z33	X34	Y34	Z34	X35	Y35	Z35	X36	Y36	Z36	X37	Y37	Z37	X38	Y38	Z38	X39	Y39	Z39	X40	Y40	Z40	X41	Y41	Z41	X42	Y42	Z42	X43	Y43	Z43	X44	Y44	Z44	X45	Y45	Z45	X46	Y46	Z46	X47	Y47	Z47	X48	Y48	Z48	X49	Y49	Z49	X50	Y50	Z50	X51	Y51	Z51	X52	Y52	Z52	X53	Y53	Z53	X54	Y54	Z54	X55	Y55	Z55	X56	Y56	Z56	X57	Y57	Z57	X58	Y58	Z58	X59	Y59	Z59	X60	Y60	Z60	X61	Y61	Z61	

856	4.275	-201.6317443847657	1565.890258789063	-1135.5595703125	-362.5164489746094	1529.141845703125	-1193.819702148438	-353.4291381835938	1517.051147460938	-1049.16650390625	-428.5029602050782	1364.7255859375	-1106.337524414063	-472.549285888672	1087.898681640625	-1064.145874023438	-287.5212097167969	1324.503662109375	-1123.537353515625	-359.2689208984376	1366.839111328125	-1258.012084960938	-205.9040527343751	1316.011108398438	-1398.021240234375	-177.9882354736328	1349.382690429688	-1370.846923828125	-137.6808166503907	1325.849975585938	-1408.902709960938	-75.57324218750001	1330.788208007813	-1413.248657226563	-61.71398162841798	1255.4072265625	-1393.999145507813	220.9136657714844	1352.248901367188	-1380.297607421875	280.6304931640626	1364.710815429688	-1287.673217773438	-319.0748291015626	1376.594604492188	-984.5334472656252	-162.6100158691407	1360.965942382813	-864.9921875000002	-127.2614669799805	1365.451904296875	-898.1396484375002	-95.1370315551758	1356.667602539063	-847.4099731445315	-22.57657241821289	1352.320556640625	-836.1741943359377	-17.75716018676758	1273.604370117188	-848.6534423828127	258.4888000488282	1340.148193359375	-895.1870727539065	262.9228210449219	1358.312744140625	-827.5753173828127	339.8721618652344	1373.710693359375	-895.6892089843752	-306.5954589843751	897.4628906250002	-1156.497802734375	-335.5488586425782	923.9694824218752	-909.1816406250002	-488.5803527832032	925.6110839843752	-1043.971557617188	-494.4910888671876	892.7935791015627	-1070.375610351563	-499.7436523437501	895.9447021484377	-1014.119140625	-199.1802673339844	616.7598266601564	-1215.405517578125	-130.5489501953125	564.6583862304689	-1215.305541992188	-92.90917205810548	591.4577026367189	-1194.413696289063	-129.3722686767578	506.4033813476564	-1197.569213867188	-107.2591934204102	456.3983459472657	-1185.442260742188	-92.31919860839845	460.823699951172	-1071.479248046875	-140.758544921875	287.5798645019532	-1087.424560546875	-203.5863952636719	262.5073852539063	-1145.717041015625	-171.7853546142578	246.2816925048829	-1114.907592773438	-221.5127105712891	190.7458038330078	-1073.375366210938	-358.6103820800782	109.2240447998047	-1080.634033203125	-315.0437622070313	127.8036499023438	-1008.240295410156	-416.6520385742189	95.19614410400392	-1017.077026367188	-215.2100677490235	46.41501617431641	-1018.330505371094	-209.8432922363282	43.82438659667969	-1069.340454101563	-256.9434509277344	31.47835540771485	-1113.373657226563	-223.5661621093751	698.8384399414064	-849.8171386718752	-157.0091552734375	690.5495605468751	-852.479431152344	-136.7761840820313	716.2517089843751	-857.7095336914065	-117.3669738769532	615.6694335937501	-871.086853027344	-5.35896396636963	538.5198364257814	-887.8952636718752	-5.202387332916261	545.8836669921876	-1009.86865234375	153.6530303955078	451.1833801269532	-918.7861328125002	157.8897857666016	337.7058410644532	-891.3624267578127	187.7716674804688	373.5991210937501	-898.5034179687502	232.5814361572266	349.6033935546876	-928.7069091796877	277.5573425292969	215.615951538086	-906.902526855469	296.1107482910157	251.3551940917969	-984.7222900390627	282.2159729003907	143.5225982666016	-976.5212402343752	420.2207946777345	308.4438171386719	-943.5313110351565	410.6802673339845	307.5184936523438	-897.1925048828127	397.5178222656251	258.0363769531251	-858.5241699218752	nan	nan	nan	
857	4.28	-201.4158935546876	1567.374389648438	-1135.4462890625	-362.7541503906251	1530.794677734375	-1193.807250976563	-353.4895935058594	1518.6669921875	-1049.0751953125	-428.7274169921876	1366.431030273438	-1106.4423828125	-472.4486694335939	1089.211547851563	-1064.2197265625	-287.2952880859376	1326.427001953125	-1123.6826171875	-359.3717651367188	1368.383544921875	-1258.0908203125	-206.0741729736329	1317.593872070313	-1397.921020507813	-178.1383209228516	1351.20703125	-1371.364135742188	-137.2811584472657	1327.204223632813	-1409.03076171875	-75.0881805419922	1331.9140625	-1413.046264648438	-61.7782325744629	1257.011840820313	-1394.022216796875	220.733871459961	1353.693969726563	-1380.280395507813	280.4871215820313	1366.288940429688	-1287.836547851563	-319.2350769042969	1378.28759765625	-984.6199340820315	-162.8222808837891	1362.486694335938	-865.111022949219	-127.3285522460938	1367.005493164063	-898.1669921875002	-95.3555145263672	1358.317626953125	-847.5247192382815	-22.79948043823243	1353.875122070313	-836.1507568359377	-18.00655555725098	1275.530395507813	-848.5703125000002	258.4437866210938	1342.117065429688	-895.293151855469	262.8386535644532	1359.7548828125	-827.3814697265627	339.5926513671876	1375.12109375	-895.4790039062502	-306.6732788085938	898.474060058594	-1156.677368164063	-334.9692993164063	925.6719360351565	-909.266540527344	-488.2950439453126	927.2333984375002	-1043.931274414063	-494.4340820312501	894.138366699219	-1070.414428710938	-499.3345336914064	897.473083496094	-1014.116638183594	-199.6371307373047	617.7648315429689	-1215.418823242188	-130.9019470214844	565.1169433593751	-1215.250122070313	-93.40266418457033	591.9874877929689	-1194.331665039063	-130.0892791748047	507.154022216797	-1197.557006835938	-108.1665954589844	457.2051086425782	-1185.604736328125	-92.93465423583986	461.438690185547	-1071.45947265625	-141.1884918212891	288.0567016601563	-1087.474609375	-203.7424316406251	262.8161010742188	-1146.1689453125	-172.8421020507813	246.5704956054688	-1115.54833984375	-221.7751007080079	191.0259857177735	-1073.409912109375	-358.6471557617188	109.294792175293	-1080.618774414063	-315.0187072753907	127.7545776367188	-1008.203552246094	-416.6513977050782	95.19918060302736	-1017.072631835938	-215.2021179199219	46.47116851806641	-1018.325866699219	-209.863754272461	43.84022903442384	-1069.344482421875	-256.9344787597657	31.46293258666993	-1113.343017578125	-222.9540557861329	700.4553833007814	-849.4114990234377	-156.5632019042969	692.2094726562501	-852.2327880859377	-136.6812591552735	717.5040893554689	-857.6665649414065	-117.2891845703125	616.9282836914064	-871.080017089844	-5.568713188171388	539.9118652343751	-887.848571777344	-5.348335266113282	546.7400512695314	-1009.886535644531	153.4266052246094	451.9308471679689	-918.9014282226565	157.4482116699219	338.7084350585938	-891.4642333984377	187.3869018554688	374.1881103515626	-898.4536132812502	232.0539093017579	350.1608886718751	-928.7066040039065	276.8048706054688	215.9618682861329	-907.0696411132815	295.4608764648438	251.7906188964844	-984.818542480469	281.5396118164063	143.9082946777344	-976.540222167969	419.7878417968751	308.6460266113282	-943.6021118164065	410.1188354492189	307.7458190917969	-897.213806152344	396.9458618164064	258.2954101562501	-858.5341796875002	nan	nan	nan	
858	4.285	-201.9575805664063	1569.813354492188	-1135.4365234375	-362.9753417968751	1532.564819335938	-1193.894287109375	-353.8020629882813	1520.441772460938	-1049.264282226563	-428.8136291503907	1367.73876953125	-1106.412231445313	-472.156219482422	1090.773559570313	-1064.233642578125	-287.6483764648438	1327.952270507813	-1123.555908203125	-359.4304809570313	1370.019653320313	-1258.120483398438	-206.1793212890626	1319.106323242188	-1398.04931640625	-178.1012115478516	1352.3095703125	-1370.978149414063	-137.7755889892578	1328.807373046875	-1409.036865234375	-75.6658401489258	1333.680908203125	-1413.3291015625	-61.96524810791017	1258.5390625	-1393.963745117188	220.7503051757813	1355.133911132813	-1380.365234375	280.4872741699219	1367.6513671875	-1287.822509765625	-319.4154052734376	1379.8681640625	-984.5399169921877	-162.8860473632813	1364.204711914063	-865.1387939453127	-127.5382995605469	1368.753784179688	-898.1748657226565	-95.4221878051758	1359.917114257813	-847.4788818359377	-22.87358474731446	1355.452514648438	-836.1125488281252	-18.06719017028809	1276.967651367188	-848.6820068359377	258.0021667480469	1343.127563476563	-894.8577270507815	262.6835632324219	1361.561645507813	-827.4956665039065	339.5852661132813	1376.31005859375	-895.5864868164065	-306.3017883300782	899.746765136719	-1156.628662109375	-334.5495605468751	927.1787719726565	-909.313171386719	-488.0182189941407	929.236511230469	-1043.944702148438	-493.5693969726564	895.9741210937502	-1070.15576171875	-499.014129638672	899.216247558594	-1014.050659179688	-200.0192565917969	618.6436767578126	-1215.489013671875	-131.951156616211	566.3480224609376	-1215.336547851563	-93.98431396484376	592.8112792968751	-1194.468383789063	-130.8888854980469	507.996307373047	-1197.574829101563	-109.0814514160157	457.8941650390626	-1185.488891601563	-93.59017944335939	462.1158142089845	-1071.364501953125	-141.863525390625	288.6789855957032	-1087.424438476563	-204.2234191894532	263.3036499023438	-1146.205688476563	-173.4214324951172	246.9364624023438	-1115.603637695313	-222.0340423583985	191.3257293701172	-1073.44921875	-358.6982116699219	109.3608779907227	-1080.616088867188	-315.0459899902344	127.8110275268555	-1008.246704101563	-416.6646728515626	95.26133728027345	-1017.077331542969	-215.1892395019532	46.4744987487793	-1018.3623046875	-209.9063873291016	43.80364608764649	-1069.341064453125	-256.9702453613282	31.46101951599122	-1113.36083984375	-223.0372009277344	701.8992309570314	-849.8162231445315	-156.3258514404297	693.4929199218751	-852.1829833984377	-136.4489440917969	718.8660278320314	-857.745788574219	-117.1355056762696	618.2830200195314	-871.0843505859377	-5.462800025939942	540.7994384765626	-887.8895263671877	-5.555644035339356	547.8065795898439	-1009.832458496094	153.126953125	452.3307495117189	-919.1341552734377	156.9892272949219	339.3470458984376	-891.4444580078127	186.8204650878907	374.8849182128907	-898.3812255859377	231.5605773925782	350.7449645996094	-928.5689697265627	276.0902404785157	216.4028320312501	-907.1900634765627	294.7470092773438	252.2033996582032	-984.8535156250002	280.8210754394532	144.9421691894532	-977.052917480469	419.3419189453126	308.9689331054688	-943.7286376953127	409.3735656738282	308.1734008789063	-897.3728637695315	396.1819763183595	258.6761169433594	-858.5955200195315	nan	nan	nan	
859	4.29	-201.9045867919922	1570.754760742188	-1135.396118164063	-363.2371520996094	1534.223876953125	-1193.844360351563	-353.9872436523438	1522.19140625	-1049.269409179688	-428.8816223144532	1369.372436523438	-1106.573486328125	-471.979461669922	1092.190307617188	-1064.224975585938	-287.4799499511719	1329.917724609375	-1123.660400390625	-359.5099182128907	1371.646850585938	-1258.2109375	-206.2095642089844	1320.67724609375	-1398.148559570313	-178.2054901123047	1354.29150390625	-1371.412841796875	-137.8967437744141	1330.515991210938	-1409.060791015625	-75.61009216308595	1335.061401367188	-1413.335205078125	-61.93284606933595	1259.962768554688	-1394.239013671875	220.6572875976563	1356.502197265625	-1380.435791015625	280.4185485839844	1369.20703125	-1288.09130859375	-319.8424987792969	1381.869506835938	-984.5689086914065	-163.158935546875	1365.66552734375	-865.1101074218752	-127.638916015625	1370.354736328125	-898.1472167968752	-95.70875549316408	1361.605834960938	-847.4475097656252	-23.04756164550782	1357.074951171875	-836.1008300781252	-18.30761528015137	1278.657836914063	-848.5426025390627	257.7163085937501	1344.418823242188	-894.7776489257815	262.4358520507813	1362.881713867188	-827.5346679687502	339.4251098632813	1378.189819335938	-895.427185058594	-305.9292907714844	901.354187011719	-1156.83935546875	-334.1408691406251	928.8469238281252	-909.3402099609377	-487.5649719238282	930.373962402344	-1043.820190429688	-493.3482666015626	897.6313476562502	-1070.0634765625	-498.6088256835939	900.7847900390627	-1013.891479492188	-200.5111083984376	619.5494995117189	-1215.418334960938	-132.4056701660157	567.1586914062501	-1215.315795898438	-94.49631500244142	593.5973510742189	-1194.689331054688	-131.2183685302735	508.6760559082032	-1197.38134765625	-110.2066268920899	458.2383422851564	-1185.515747070313	-94.69947814941408	462.8780517578126	-1071.446166992188	-142.4892730712891	289.2460632324219	-1087.393676757813	-204.7156524658204	263.7593383789063	-1146.284301757813	-173.3677825927735	247.3404846191407	-1115.617065429688	-222.2117614746094	191.7075500488282	-1073.556274414063	-358.6999206542969	109.3610229492188	-1080.619995117188	-315.0922851562501	127.8395690917969	-1008.240539550781	-416.6657714843751	95.23842620849611	-1017.048217773438	-215.2457733154297	46.47888565063477	-1018.359558105469	-209.8905792236329	43.82160568237305	-1069.345581054688	-256.9889831542969	31.41991233825684	-1113.341064453125	-222.3854675292969	703.3807373046876	-849.2834472656252	-156.1421813964844	695.0671997070314	-852.2796020507815	-136.1222229003907	720.2082519531251	-857.7609863281252	-117.1494064331055	619.5474243164064	-870.9536132812502	-5.580527305603028	541.6432495117189	-887.8684082031252	-5.668548107147218	548.7912597656251	-1009.84375	152.8516082763672	453.2628784179689	-919.1555175781252	156.3357238769532	340.0846252441407	-891.292907714844	186.3994750976563	375.6954956054688	-898.2009887695315	231.0982971191407	351.4125366210938	-928.3711547851565	275.3014221191407	216.8572082519532	-907.0705566406252	294.1713867187501	252.2411651611329	-984.896179199219	279.4543151855469	144.8722839355469	-976.2198486328127	418.6926269531251	309.3054809570313	-943.7930297851565	409.0050048828126	308.3416137695313	-897.251159667969	395.3927612304689	259.0059509277344	-858.5856933593752	nan	nan	nan	
